<svg xmlns="http://www.w3.org/2000/svg" xmlns:xlink="http://www.w3.org/1999/xlink" version="1.1" x="0px" y="0px" viewBox="0 0 64 80" enable-background="new 0 0 64 64" xml:space="preserve"><g><path d="M3.583,9.714l3.152-0.705c0.032-0.007,0.057-0.025,0.087-0.033c0.47,0.383,1.084,0.58,1.723,0.438   c1.103-0.247,1.797-1.341,1.551-2.444S8.755,5.171,7.652,5.417C7.013,5.56,6.542,6,6.28,6.547c-0.032,0.006-0.062,0-0.093,0.007   L3.035,7.259c-0.9,0.201-1.513,0.918-1.362,1.593C1.823,9.527,2.684,9.915,3.583,9.714z"/><path d="M3.583,15.822l3.152-0.705c0.032-0.007,0.057-0.025,0.087-0.033c0.47,0.383,1.084,0.58,1.723,0.438   c1.103-0.247,1.797-1.341,1.551-2.444s-1.341-1.798-2.444-1.552c-0.639,0.143-1.11,0.583-1.372,1.13   c-0.032,0.006-0.062,0-0.093,0.006l-3.152,0.706c-0.9,0.2-1.513,0.917-1.362,1.592C1.823,15.635,2.684,16.022,3.583,15.822z"/><path d="M3.583,21.93l3.152-0.705c0.032-0.008,0.057-0.025,0.087-0.034c0.47,0.384,1.084,0.581,1.723,0.438   c1.103-0.246,1.797-1.341,1.551-2.444s-1.341-1.797-2.444-1.552c-0.639,0.144-1.11,0.583-1.372,1.13   c-0.032,0.006-0.062,0-0.093,0.007l-3.152,0.706c-0.9,0.2-1.513,0.917-1.362,1.592C1.823,21.744,2.684,22.131,3.583,21.93z"/><path d="M3.583,28.038l3.152-0.705c0.032-0.006,0.057-0.024,0.087-0.033c0.47,0.384,1.084,0.581,1.723,0.438   c1.103-0.247,1.797-1.341,1.551-2.444s-1.341-1.798-2.444-1.552c-0.639,0.143-1.11,0.583-1.372,1.13   c-0.032,0.006-0.062,0-0.093,0.007l-3.152,0.706c-0.9,0.2-1.513,0.917-1.362,1.592C1.823,27.852,2.684,28.239,3.583,28.038z"/><path d="M3.583,34.146l3.152-0.705c0.032-0.006,0.057-0.024,0.087-0.033c0.47,0.383,1.084,0.58,1.723,0.438   c1.103-0.247,1.797-1.342,1.551-2.445c-0.247-1.103-1.341-1.797-2.444-1.552c-0.639,0.144-1.11,0.583-1.372,1.13   c-0.032,0.005-0.062,0-0.093,0.006l-3.152,0.705c-0.9,0.201-1.513,0.918-1.362,1.593C1.823,33.96,2.684,34.348,3.583,34.146z"/><path d="M3.583,40.255l3.152-0.705c0.032-0.007,0.057-0.025,0.087-0.033c0.47,0.383,1.084,0.58,1.723,0.438   c1.103-0.246,1.797-1.342,1.551-2.444s-1.341-1.798-2.444-1.552c-0.639,0.143-1.11,0.583-1.372,1.13   c-0.032,0.006-0.062,0-0.093,0.007L3.035,37.8c-0.9,0.2-1.513,0.918-1.362,1.593C1.823,40.067,2.684,40.455,3.583,40.255z"/><path d="M3.583,46.362l3.152-0.705c0.032-0.006,0.057-0.023,0.087-0.033c0.47,0.383,1.084,0.58,1.723,0.438   c1.103-0.246,1.797-1.341,1.551-2.444s-1.341-1.798-2.444-1.552c-0.639,0.144-1.11,0.583-1.372,1.13   c-0.032,0.006-0.062,0-0.093,0.006l-3.152,0.705c-0.9,0.201-1.513,0.918-1.362,1.594C1.823,46.176,2.684,46.563,3.583,46.362z"/><path d="M3.583,52.472l3.152-0.705c0.032-0.008,0.057-0.025,0.087-0.034c0.47,0.384,1.084,0.581,1.723,0.438   c1.103-0.247,1.797-1.342,1.551-2.445c-0.247-1.103-1.341-1.797-2.444-1.551c-0.639,0.143-1.11,0.582-1.372,1.129   c-0.032,0.006-0.062,0-0.093,0.008l-3.152,0.705c-0.9,0.2-1.513,0.918-1.362,1.592C1.823,52.284,2.684,52.671,3.583,52.472z"/><path d="M6.822,57.841c0.47,0.383,1.084,0.58,1.723,0.438c1.103-0.246,1.797-1.341,1.551-2.443   c-0.247-1.104-1.341-1.799-2.444-1.553c-0.639,0.144-1.11,0.584-1.372,1.131c-0.032,0.006-0.062,0-0.093,0.006l-3.152,0.705   c-0.9,0.201-1.513,0.918-1.362,1.593c0.15,0.676,1.011,1.063,1.911,0.862l3.152-0.705C6.767,57.868,6.792,57.85,6.822,57.841z"/><path d="M30.008,46.381c0,0,1.154-0.036,1.889,0.673c0.842,0.816,0.825,1.954,0.825,1.954s1.29,0.095,2.022,0.804   c0.713,0.689,0.689,1.822,0.689,1.822l24.01-24.802l-5.426-5.252L30.008,46.381z"/><path d="M35.006,52.082c0,0,0.141-1.086-0.68-1.88c-0.712-0.689-1.991-0.706-1.991-0.706s-0.146-1.362-0.857-2.052   c-0.669-0.647-1.903-0.621-1.903-0.621l-4.47,10.053L35.006,52.082z M29.895,47.342c0.375,0.04,0.92,0.159,1.233,0.462   c0.473,0.459,0.67,1.416,0.706,1.746l0.049,0.439l0.443,0.01c0.303,0.004,1.189,0.116,1.65,0.563   c0.412,0.398,0.512,0.905,0.531,1.203l-5.678,2.748c-0.393-1.037-1.079-1.362-1.477-1.456L29.895,47.342z"/><path d="M61.842,21.943l-3.016-2.918c-0.662-0.642-1.73-0.624-2.371,0.038l-1.99,2.057l5.426,5.252l1.99-2.057   C62.521,23.653,62.505,22.585,61.842,21.943z"/><path d="M35.875,52.806l-1.479,0.715L22.91,59.083l5.237-11.777l0.609-1.37c0,0,0.357-0.521,0.5-0.524l0.092-0.095l3.627-3.747   H17.896v-2.516H35.41l3.479-3.594H17.896v-2.516h23.429l10.801-11.158V2H4.434v4.43l1.522-0.341   c0.363-0.597,0.928-1.016,1.586-1.164c0.184-0.041,0.372-0.062,0.558-0.062c1.183,0,2.229,0.839,2.488,1.995   c0.307,1.373-0.56,2.739-1.933,3.046C8.481,9.943,8.304,9.963,8.127,9.963c-0.494,0-0.99-0.157-1.42-0.446l-2.274,0.52v2.501   l1.522-0.341c0.363-0.597,0.928-1.015,1.586-1.163c0.184-0.042,0.372-0.063,0.558-0.063c1.183,0,2.229,0.84,2.488,1.995   c0.307,1.373-0.56,2.739-1.933,3.046c-0.173,0.038-0.351,0.058-0.527,0.058c-0.494,0-0.99-0.157-1.42-0.446l-2.274,0.519v2.503   l1.522-0.341c0.363-0.597,0.928-1.016,1.586-1.163c0.184-0.042,0.372-0.063,0.558-0.063c1.183,0,2.229,0.839,2.488,1.995   c0.307,1.372-0.56,2.739-1.933,3.045c-0.173,0.039-0.351,0.058-0.527,0.058c-0.494,0-0.99-0.157-1.42-0.446l-2.274,0.52v2.501   l1.522-0.34c0.363-0.597,0.928-1.016,1.586-1.163c0.184-0.042,0.372-0.062,0.558-0.062c1.183,0,2.229,0.839,2.488,1.995   c0.307,1.373-0.56,2.738-1.933,3.045c-0.173,0.039-0.351,0.058-0.527,0.058c-0.494,0-0.99-0.157-1.42-0.446l-2.274,0.52v2.502   l1.522-0.34c0.363-0.597,0.928-1.016,1.586-1.163c0.184-0.042,0.372-0.063,0.558-0.063c1.183,0,2.229,0.839,2.488,1.995   c0.307,1.372-0.56,2.738-1.933,3.045c-0.173,0.039-0.351,0.059-0.527,0.059c-0.494,0-0.99-0.157-1.42-0.446L4.434,34.47v2.501   l1.522-0.34c0.363-0.598,0.928-1.016,1.586-1.164c0.184-0.041,0.372-0.062,0.558-0.062c1.183,0,2.229,0.84,2.488,1.995   c0.307,1.372-0.56,2.737-1.933,3.045c-0.173,0.038-0.351,0.058-0.527,0.058c-0.494,0-0.99-0.156-1.42-0.445l-2.274,0.52v2.502   l1.522-0.341c0.363-0.597,0.928-1.015,1.586-1.163c0.184-0.041,0.372-0.063,0.558-0.063c1.183,0,2.229,0.84,2.488,1.996   c0.307,1.372-0.56,2.738-1.933,3.045c-0.173,0.038-0.351,0.059-0.527,0.059c-0.494,0-0.99-0.158-1.42-0.446l-2.274,0.52v2.501   l1.522-0.34c0.363-0.597,0.928-1.016,1.586-1.163c0.184-0.042,0.372-0.062,0.558-0.062c1.183,0,2.229,0.839,2.488,1.994   c0.307,1.373-0.56,2.738-1.933,3.045C8.481,52.7,8.304,52.72,8.127,52.72c-0.494,0-0.99-0.157-1.42-0.446l-2.274,0.52v2.503   l1.522-0.342c0.363-0.596,0.928-1.015,1.586-1.162c0.184-0.042,0.372-0.063,0.558-0.063c1.183,0,2.229,0.84,2.488,1.995   c0.307,1.373-0.56,2.738-1.933,3.046c-0.173,0.038-0.351,0.058-0.527,0.058c-0.494,0-0.99-0.157-1.42-0.446l-2.274,0.52V62h47.691   V36.019l-15.82,16.344L35.875,52.806z M17.896,8.509h26.159v2.516H17.896V8.509z M17.896,14.617h26.159v2.516H17.896V14.617z    M17.896,20.727h26.159v2.516H17.896V20.727z M17.896,26.835h26.159v2.516H17.896V26.835z"/></g></svg>