<svg xmlns="http://www.w3.org/2000/svg" xmlns:xlink="http://www.w3.org/1999/xlink" version="1.1" x="0px" y="0px" viewBox="0 0 100 125" style="enable-background:new 0 0 100 100;" xml:space="preserve"><path d="M74.1152,34.5861c3.7076-3.7078,5.7908-8.7366,5.7908-13.9802v-7.6744h5.9435V5H14.1505v7.9315h5.9435v7.6744  c0,5.2436,2.0829,10.2723,5.7905,13.9802l13.373,13.3729c1.1272,1.1271,1.1272,2.955,0,4.0822l-13.373,13.3728  c-3.7076,3.7078-5.7905,8.7366-5.7905,13.9802v7.6747h-5.9435V95h71.6991v-7.9313H79.906V79.394  c0-5.2435-2.0831-10.2723-5.7908-13.9802L60.7424,52.0411c-1.1274-1.1272-1.1274-2.955,0-4.0822L74.1152,34.5861z M69.1929,70.336  c2.4196,2.4197,3.752,5.6365,3.752,9.058v7.6747v0.9702h-6.5579C63.6167,85.4363,53.1736,75.8273,50,75.8273  c-3.1738,0-13.6169,9.6091-16.3873,12.2116h-6.5577v-0.9702V79.394c0-3.4217,1.3324-6.6386,3.7518-9.0578l13.373-13.373  c1.6893-1.6893,2.5904-3.8483,2.7931-6.0597L50,70.0446l3.0251-19.1307c0.2109,2.2818,1.1548,4.4093,2.7952,6.0493L69.1929,70.336z   M50,31.6855c-8.1877,0-17.3624-2.419-20.1786-3.2205c-1.7614-2.2437-2.7664-4.962-2.7664-7.8591v-7.6744v-0.9704h45.8899v0.9704  v7.6744c0,2.8968-1.005,5.6151-2.7664,7.8591C67.3624,29.2663,58.1877,31.6855,50,31.6855z"/></svg>