<svg xmlns="http://www.w3.org/2000/svg" xmlns:xlink="http://www.w3.org/1999/xlink" xml:space="preserve" version="1.1" style="shape-rendering:geometricPrecision;text-rendering:geometricPrecision;image-rendering:optimizeQuality;" viewBox="0 0 316 121.25" x="0px" y="0px" fill-rule="evenodd" clip-rule="evenodd"><defs><style type="text/css">
   
    .fil0 {fill:black}
   
  </style></defs><g><path class="fil0" d="M145 11c-42,-11 -83,-14 -134,-8 -16,2 -14,26 1,29 4,11 6,31 12,43 13,30 74,26 97,11 15,-9 20,-30 25,-46 3,-9 21,-9 24,0 6,16 10,37 25,46 23,15 84,19 98,-11 5,-12 7,-32 11,-43 15,-3 17,-27 1,-29 -51,-6 -92,-3 -134,8 -6,1 -20,1 -26,0zm-79 1c-16,0 -38,3 -41,15 -6,19 5,55 31,56 -15,-8 -27,-36 -22,-52 3,-10 18,-16 32,-19zm152 1c-15,1 -35,5 -38,16 -5,19 7,52 32,52 -14,-7 -28,-33 -23,-49 2,-9 16,-16 29,-19z"/></g><text x="0" y="112" fill="#000000" font-size="5px" font-weight="bold" font-family="'Helvetica Neue', Helvetica, Arial-Unicode, Arial, Sans-serif">Created by yasminvisible</text><text x="0" y="117" fill="#000000" font-size="5px" font-weight="bold" font-family="'Helvetica Neue', Helvetica, Arial-Unicode, Arial, Sans-serif">from the Noun Project</text></svg>